<?xml version="1.0" encoding="UTF-8" standalone="no"?>
<!DOCTYPE svg PUBLIC "-//W3C//DTD SVG 1.1//EN" "http://www.w3.org/Graphics/SVG/1.1/DTD/svg11.dtd">
<svg width="100%" height="100%" fill="rgba(255, 255, 255, 0.7)" 
viewBox="0 0 534 534" version="1.1" 
xmlns="http://www.w3.org/2000/svg" >
    <g transform="matrix(1.33333,0,0,1.33333,0,0)">
        <g>
            <path d="M201.436,26.473C102.393,26.473 22.08,106.769 22.08,205.826C22.08,285.07 73.471,352.301 144.734,376.017C153.698,377.677 156.989,372.126 156.989,367.389C156.989,363.112 156.823,348.983 156.745,333.996C106.848,344.846 96.319,312.834 96.319,312.834C88.161,292.103 76.405,286.591 76.405,286.591C60.132,275.459 77.632,275.688 77.632,275.688C95.642,276.95 105.126,294.171 105.126,294.171C121.122,321.59 147.084,313.663 157.318,309.08C158.928,297.491 163.576,289.573 168.706,285.097C128.868,280.562 86.99,265.183 86.99,196.459C86.99,176.877 93.997,160.877 105.47,148.317C103.608,143.796 97.469,125.557 107.208,100.852C107.208,100.852 122.269,96.032 156.543,119.237C170.85,115.263 186.193,113.27 201.436,113.202C216.678,113.27 232.033,115.263 246.367,119.237C280.6,96.032 295.64,100.852 295.64,100.852C305.403,125.557 299.261,143.796 297.399,148.317C308.899,160.877 315.857,176.877 315.857,196.459C315.857,265.346 273.899,280.514 233.961,284.955C240.394,290.52 246.126,301.435 246.126,318.169C246.126,342.164 245.918,361.478 245.918,367.389C245.918,372.161 249.147,377.754 258.238,375.993C329.463,352.25 380.789,285.044 380.789,205.826C380.789,106.769 300.487,26.473 201.436,26.473Z" />
            </g>
            </g>
</svg>