<?xml version="1.0" standalone="no"?>
<!DOCTYPE svg PUBLIC "-//W3C//DTD SVG 20010904//EN"
 "http://www.w3.org/TR/2001/REC-SVG-20010904/DTD/svg10.dtd">
<svg version="1.0" xmlns="http://www.w3.org/2000/svg"
 width="100%" height="100%" 
 fill="rgba(255, 255, 255, 0.7)" 
 viewBox="0 0 512.000000 512.000000"
 preserveAspectRatio="xMidYMid meet">

<g transform="translate(0.000000,512.000000) scale(0.100000,-0.100000)"
fill="rgba(255, 255, 255, 0.7)" stroke="none">
<path d="M2340 5110 c-497 -47 -928 -216 -1340 -524 -122 -91 -375 -344 -466
-466 -260 -347 -415 -695 -489 -1097 -150 -813 100 -1639 680 -2242 350 -364
828 -627 1318 -726 198 -40 300 -49 522 -49 297 0 532 37 797 125 762 252
1368 856 1624 1620 92 274 128 503 128 809 0 303 -37 537 -126 804 -310 927
-1122 1601 -2088 1732 -133 18 -436 25 -560 14z m285 -1781 c34 -9 117 -88
564 -532 353 -353 529 -535 542 -562 79 -169 -91 -341 -261 -264 -34 15 -152
127 -478 452 l-432 432 -433 -432 c-296 -296 -444 -437 -469 -448 -54 -22
-107 -19 -164 10 -85 42 -128 135 -104 226 10 39 66 99 533 568 352 353 535
529 562 542 46 21 83 23 140 8z"/>
</g>
</svg>
