<?xml version="1.0" encoding="UTF-8" standalone="no"?>
<!DOCTYPE svg PUBLIC "-//W3C//DTD SVG 1.1//EN" "http://www.w3.org/Graphics/SVG/1.1/DTD/svg11.dtd">
<svg width="100%" height="100%" viewBox="0 0 1600 1600" version="1.1" xmlns="http://www.w3.org/2000/svg" xmlns:xlink="http://www.w3.org/1999/xlink" xml:space="preserve" xmlns:serif="http://www.serif.com/" style="fill-rule:evenodd;clip-rule:evenodd;stroke-linejoin:round;stroke-miterlimit:2;">
    <g transform="matrix(1.33333,0,0,1.33333,0,0)">
        <g id="Heart-Only" serif:id="Heart Only">
            <g>
                <g>
                    <g>
                        <path d="M609.063,336.509C608.796,336.754 609.642,336.51 609.063,336.509C599.771,336.501 600.07,336.189 600.07,336.189C602.228,318.97 558.188,278.865 547.226,268.026C516.192,237.344 474.451,220.015 436.477,200.278C433.162,196.808 431.315,196.025 429.92,191.408C429.268,187.894 429.194,181.626 430.247,177.833L453.088,90.727C454.273,86.393 461.169,84.63 461.918,84.35C470.127,83.139 476.375,86.419 484.077,87.938C528.328,109.782 566.952,131.592 598.442,169.058C630.911,130.425 672.802,100.803 718.852,81.191C836.57,31.055 978.667,43.46 1078.6,126.693C1102.88,146.913 1124.21,170.742 1141.71,197.192C1159.49,224.069 1173.32,253.603 1182.62,284.555C1192.36,316.936 1197.19,350.726 1197.19,384.568C1197.19,613.523 993.924,800.013 686.112,1082.91L599.429,1162.82L512.742,1083.5C411.689,990.443 310.927,897.444 215.754,798.145C136.818,715.786 59.174,620.093 22.453,509.798C5.423,458.646 -1.864,404.159 3.315,350.325C12.634,253.462 64.13,163.754 143.688,108.936C169.89,90.882 198.701,76.751 228.93,67.122C260.513,57.062 293.508,51.876 326.605,51.508C336.703,55.025 342.101,56.75 343.29,68.631C343.48,70.528 342.756,72.411 342.673,74.315L320.75,160.105C317.696,166.293 314.928,170.795 308.088,173.133C305.447,174.036 302.337,173.363 299.864,174.666C262.706,179.692 227.11,194.371 197.665,218.118C175.976,235.609 165.394,249.943 150.341,273.299C140.367,288.774 133.506,307.635 128.802,325.379C100.187,433.32 157.784,538.011 221.395,620.573C230.856,632.854 240.441,645.059 250.64,656.718C272.987,682.268 295.567,707.631 318.999,732.163C345.245,759.642 372.362,786.262 399.629,812.702C455.316,866.698 537.096,941.618 593.447,993.314L599.43,999.476L605.412,993.525C698.314,908.287 792.591,823.76 879.847,732.473C933.022,676.841 985.774,617.966 1025.41,551.227C1055.7,500.24 1076.39,445.116 1077.64,385.128C1079.54,292.969 1019.25,208.845 932.123,182.838C851.279,158.705 740.13,200.054 680.948,259.532C653.31,287.308 618.886,327.486 609.063,336.509Z" style="fill:url(#_Linear1);fill-rule:nonzero;"/>
                    </g>
                </g>
            </g>
        </g>
    </g>
    <defs>
        <linearGradient id="_Linear1" x1="0" y1="0" x2="1" y2="0" gradientUnits="userSpaceOnUse" gradientTransform="matrix(1075.77,0,0,1075.77,63.0068,501.659)"><stop offset="0" style="stop-color:rgb(255,244,0);stop-opacity:1"/><stop offset="0.1" style="stop-color:rgb(255,143,0);stop-opacity:1"/><stop offset="0.2" style="stop-color:rgb(255,0,133);stop-opacity:1"/><stop offset="0.3" style="stop-color:rgb(255,0,244);stop-opacity:1"/><stop offset="0.4" style="stop-color:rgb(187,0,255);stop-opacity:1"/><stop offset="0.5" style="stop-color:rgb(117,0,255);stop-opacity:1"/><stop offset="0.6" style="stop-color:rgb(0,106,255);stop-opacity:1"/><stop offset="0.7" style="stop-color:rgb(0,206,255);stop-opacity:1"/><stop offset="0.8" style="stop-color:rgb(0,255,104);stop-opacity:1"/><stop offset="0.9" style="stop-color:rgb(88,255,0);stop-opacity:1"/><stop offset="1" style="stop-color:rgb(255,246,0);stop-opacity:1"/></linearGradient>
    </defs>
</svg>
